<svg width="120" height="119" viewBox="0 0 120 119" fill="none" xmlns="http://www.w3.org/2000/svg">
<path d="M119.303 0.670543C118.663 0.0439349 117.716 -0.165244 116.869 0.135509L19.5206 34.5564C16.1386 32.5055 11.8488 32.0254 7.91437 33.6409C1.38351 36.3238 -1.72923 43.7754 0.975926 50.2523C7.35539 65.5242 16.5661 79.1946 28.3531 90.8833C40.14 102.572 53.9251 111.706 69.3256 118.032C70.925 118.689 72.5827 119 74.2149 119C79.2481 119 84.0339 116.042 86.0764 111.151C87.4508 107.861 87.321 104.319 86.0064 101.278L119.874 3.0768C120.165 2.23265 119.943 1.29738 119.303 0.670543ZM34.2605 34.2796L44.5777 30.632C45.789 31.9117 46.3794 33.6735 46.1429 35.4552C45.9343 37.024 45.1224 38.4188 43.8565 39.3822C42.5907 40.3456 41.0232 40.7618 39.44 40.5557C37.8582 40.3491 36.4519 39.5442 35.4804 38.2886C34.5854 37.1319 34.1595 35.7206 34.2605 34.2796ZM81.7457 109.372C80.0296 113.481 75.2619 115.439 71.1195 113.737C41.1101 101.41 17.7375 78.2324 5.30695 48.4731C4.47562 46.4829 4.47562 44.2909 5.30695 42.3005C6.13828 40.3102 7.70133 38.7602 9.70828 37.9358C11.7152 37.1114 13.9259 37.1114 15.9328 37.9358C17.9398 38.7602 19.5028 40.3102 20.3342 42.3005C25.6547 55.0388 33.3375 66.4409 43.1691 76.1905C53.0007 85.9401 64.4987 93.5587 77.3441 98.8351C81.4874 100.537 83.462 105.264 81.7457 109.372ZM102.568 38.8908C102.356 38.8857 102.144 38.8736 101.932 38.8462C100.35 38.6396 98.9439 37.8345 97.9726 36.5792C97.0011 35.3239 96.5809 33.7683 96.789 32.1997C97.2191 28.9611 100.225 26.6736 103.492 27.0994C104.5 27.231 105.446 27.6186 106.253 28.2083L102.568 38.8908ZM107.811 23.6891C106.669 23.0725 105.414 22.6618 104.104 22.4907C98.2745 21.7277 92.909 25.813 92.1416 31.593C91.7699 34.3928 92.5199 37.1686 94.2536 39.4091C95.9235 41.5672 98.3141 42.977 101.011 43.407L96.3524 56.9151L90.995 52.8385C89.9682 52.0575 88.4966 52.249 87.7089 53.2675C86.9209 54.286 87.1147 55.7449 88.1415 56.5263L94.7521 61.5563L82.6363 96.688C81.62 95.8118 80.4498 95.0787 79.1389 94.5402C54.2998 84.3371 34.9545 65.1531 24.6661 40.5215C24.3085 39.6648 23.8641 38.8695 23.3515 38.1369L29.6278 35.9177C29.847 37.7929 30.5728 39.5816 31.7618 41.1181C33.4953 43.3587 36.0052 44.7955 38.8285 45.1639C39.3015 45.2257 39.773 45.2564 40.2422 45.2564C42.5738 45.2564 44.8294 44.501 46.7103 43.07C48.9699 41.3506 50.4186 38.862 50.7905 36.0618C51.124 33.5482 50.5325 31.0585 49.2043 28.996L78.3388 18.6946L79.4429 21.3382C79.817 22.2332 80.6896 22.7736 81.6092 22.7736C81.9081 22.7736 82.2118 22.7164 82.5053 22.596C83.701 22.1049 84.2689 20.745 83.7737 19.5592L82.7598 17.1316L113.866 6.13291L107.811 23.6891Z" fill="#FF9F0D"/>
</svg>
